<?xml version="1.0" encoding="utf-8"?>
<!-- Generator: Adobe Illustrator 15.1.0, SVG Export Plug-In . SVG Version: 6.00 Build 0)  -->
<!DOCTYPE svg PUBLIC "-//W3C//DTD SVG 1.1//EN" "http://www.w3.org/Graphics/SVG/1.1/DTD/svg11.dtd">
<svg version="1.1" xmlns="http://www.w3.org/2000/svg" xmlns:xlink="http://www.w3.org/1999/xlink" x="0px" y="0px" width="936px"
	 height="695px" viewBox="0 0 936 695" enable-background="new 0 0 936 695" xml:space="preserve">
<metadata>
<x:xmpmeta xmlns:x="adobe:ns:meta/" x:xmptk="Adobe XMP Core 5.0-c060 61.134777, 2010/02/12-17:32:00">
   <rdf:RDF xmlns:rdf="http://www.w3.org/1999/02/22-rdf-syntax-ns#">
      <rdf:Description rdf:about=""
            xmlns:dc="http://purl.org/dc/elements/1.1/">
         <dc:format>image/svg+xml</dc:format>
         <dc:title>
            <rdf:Alt>
               <rdf:li xml:lang="x-default">Kräfte an der schiefen Ebene</rdf:li>
            </rdf:Alt>
         </dc:title>
         <dc:creator>
            <rdf:Seq>
               <rdf:li>Stefan Richtberg (stefan@richtberg.org)</rdf:li>
            </rdf:Seq>
         </dc:creator>
         <dc:rights>
            <rdf:Alt>
               <rdf:li xml:lang="x-default">© Stefan Richtberg für www.leifiphysik.de</rdf:li>
            </rdf:Alt>
         </dc:rights>
                  <dc:description>
            <rdf:Alt>
               <rdf:li xml:lang="x-default">Kräfte an der schiefen Ebene</rdf:li>
            </rdf:Alt>
         </dc:description>
      </rdf:Description>
      <rdf:Description rdf:about=""
            xmlns:Iptc4xmpCore="http://iptc.org/std/Iptc4xmpCore/1.0/xmlns/">
         <Iptc4xmpCore:CreatorContactInfo rdf:parseType="Resource">
            <Iptc4xmpCore:CiAdrExtadr>Trautmannstr. 7</Iptc4xmpCore:CiAdrExtadr>
            <Iptc4xmpCore:CiAdrCity>München</Iptc4xmpCore:CiAdrCity>
            <Iptc4xmpCore:CiAdrPcode>81373</Iptc4xmpCore:CiAdrPcode>
            <Iptc4xmpCore:CiAdrCtry>Germany</Iptc4xmpCore:CiAdrCtry>
            <Iptc4xmpCore:CiEmailWork>stefan@richtberg.org</Iptc4xmpCore:CiEmailWork>
            <Iptc4xmpCore:CiUrlWork>www.richtberg.org</Iptc4xmpCore:CiUrlWork>
         </Iptc4xmpCore:CreatorContactInfo>
      </rdf:Description>
   </rdf:RDF>
</x:xmpmeta>
</metadata>
<g id="Ebene_1">
	<radialGradient id="SVGID_1_" cx="378" cy="156" r="55" gradientUnits="userSpaceOnUse">
		<stop  offset="0" style="stop-color:#C0C0C0"/>
		<stop  offset="1" style="stop-color:#000000"/>
	</radialGradient>
	<path fill="url(#SVGID_1_)" stroke="#000000" stroke-width="1.5714" stroke-miterlimit="10" d="M433,156c0,30.372-24.629,55-55,55
		s-55-24.628-55-55c0-30.374,24.629-55,55-55S433,125.626,433,156z"/>
	<polyline fill="none" stroke="#000000" stroke-width="6" stroke-miterlimit="10" points="57,544 57,36 57,35.507 922,545 54,545 	
		"/>
	<g>
		<g>
			<line fill="none" stroke="#008000" stroke-width="7" stroke-miterlimit="10" x1="377.5" y1="158" x2="377.5" y2="608"/>
			<g>
				<polygon fill="#008000" points="378,657.5 349.542,587.855 378,604.381 406.451,587.855 				"/>
			</g>
		</g>
	</g>
	<g>
		<g>
			<line fill="none" stroke="#FF0000" stroke-width="7" stroke-miterlimit="10" x1="377.746" y1="156" x2="551.451" y2="256.288"/>
			<g>
				<polygon fill="#FF0000" points="594.253,281 519.71,270.823 548.251,254.441 548.165,221.539 				"/>
			</g>
		</g>
	</g>
	<g>
		<g>
			
				<line fill="none" stroke="#0000FF" stroke-width="7" stroke-miterlimit="10" x1="377.25" y1="158.505" x2="185.462" y2="490.691"/>
			<g>
				<polygon fill="#0000FF" points="160.75,533.494 170.927,458.951 187.31,487.492 220.212,487.406 				"/>
			</g>
		</g>
	</g>
	<g>
		<g>
			
				<line fill="none" stroke="#0000FF" stroke-width="7" stroke-miterlimit="10" x1="592.25" y1="283.506" x2="589.25" y2="288.702"/>
			
				<line fill="none" stroke="#0000FF" stroke-width="7" stroke-miterlimit="10" stroke-dasharray="12.0286,12.0286" x1="583.236" y1="299.119" x2="381.757" y2="648.09"/>
			
				<line fill="none" stroke="#0000FF" stroke-width="7" stroke-miterlimit="10" x1="378.75" y1="653.298" x2="375.75" y2="658.494"/>
		</g>
	</g>
	<g>
		<g>
			<line fill="none" stroke="#FF0000" stroke-width="7" stroke-miterlimit="10" x1="161.746" y1="534" x2="166.942" y2="537"/>
			
				<line fill="none" stroke="#FF0000" stroke-width="7" stroke-miterlimit="10" stroke-dasharray="12.5263,12.5263" x1="177.791" y1="543.264" x2="367.633" y2="652.868"/>
			<line fill="none" stroke="#FF0000" stroke-width="7" stroke-miterlimit="10" x1="373.057" y1="656" x2="378.253" y2="659"/>
		</g>
	</g>
	<g>
		<g>
			<path fill="#008000" d="M286.73,513.208c0-0.145,0.072-0.432,0.216-1.008c0.36-1.513,0.36-1.513,2.232-1.513
				c1.656,0,3.528-0.144,4.321-0.216c0.72-0.144,1.08-0.36,1.368-0.864c0.216-0.504,10.153-39.963,10.153-40.396
				c0-0.288-0.072-0.504-0.288-0.504c-0.36-0.144-1.872-0.288-3.816-0.36h-2.232c-0.504-0.504-0.648-0.504-0.288-1.8
				c0.288-1.296,0.36-1.296,0.72-1.512h38.812c0.144,0.071,0.504,0.288,0.504,0.792s-1.872,15.77-1.944,15.985
				c-0.144,0.432-0.432,0.504-1.44,0.504h-0.864c-0.432-0.288-0.504-0.504-0.504-0.937c0-0.792,0.432-2.088,0.432-5.544
				c0-7.272-3.744-7.489-13.393-7.489h-1.656c-5.833,0.072-6.409-0.144-6.769,0.792c-0.072,0.072-1.152,4.321-2.448,9.434
				l-2.304,9.288h3.96c2.88-0.071,6.336,0.217,8.208-1.655c2.16-1.944,2.592-6.121,2.88-6.409c0.144-0.288,0.432-0.36,1.368-0.36
				h0.864c0.216,0.145,0.504,0.433,0.504,0.721s-4.537,18.577-4.681,18.938c-0.144,0.432-0.432,0.504-1.44,0.504h-0.864
				c-0.36-0.288-0.504-0.504-0.504-0.864c0-0.792,0.72-2.016,0.72-4.464c0-2.881-1.656-3.097-7.849-3.097h-3.96l-2.304,9.145
				c-1.296,5.041-2.304,9.217-2.304,9.361c0,0.576,0.576,1.008,6.409,1.008h1.8c0.504,0.504,0.648,0.288,0.288,1.944
				c-0.36,1.152-0.216,0.864-0.72,1.368h-1.224c-2.953-0.144-6.985-0.144-10.873-0.144c-7.921,0-7.849,0.071-9.865,0.071
				C287.594,513.928,286.73,514,286.73,513.208z"/>
			<path fill="#008000" d="M349.563,492.157c0.288,0,0.576,0.048,0.816,0.048c0.96,0,4.369,0,7.729,3.265l0.624,0.576l1.44-1.873
				c0.768-1.056,1.44-1.92,1.488-1.968c0.096,0,0.24-0.048,0.48-0.048h0.192c0.144,0,0.192,0.048,0.432,0.288v13.441l-0.288,0.287
				h-1.632c-0.24-0.239-0.288-0.239-0.336-0.815c-0.576-5.232-3.264-9.409-6.864-10.609c-0.768-0.288-1.344-0.336-2.4-0.336
				c-3.312,0-10.897,1.488-11.953,11.857c-0.096,1.008-0.192,2.4-0.192,3.648c0,12.721,8.161,14.929,12.385,14.929
				c3.024,0,5.521-1.488,6.145-3.648c0.096-0.336,0.144-0.384,0.144-2.88v-2.496c-0.672-0.48-0.336-0.72-4.752-0.72h-1.248v-2.209
				h0.576c0.384,0.048,7.681,0.145,7.681,0.145c1.44,0,5.473-0.097,5.665-0.145h0.384v2.209h-0.672c-1.44,0-2.256,0-2.544,0.575
				c-0.096,0.192-0.096,0.433-0.096,5.137v4.896c-0.192,0.192-0.288,0.288-0.432,0.288s-0.384-0.144-0.864-0.48
				c-0.768-0.527-1.248-0.912-1.873-1.536l-0.624-0.575c-0.768,1.296-3.6,3.647-8.688,3.647c-8.401,0-16.802-6.912-16.802-17.473
				C333.481,497.918,343.274,492.157,349.563,492.157z"/>
		</g>
		<g>
			<g>
				<line fill="none" stroke="#008000" stroke-width="2" stroke-miterlimit="10" x1="304" y1="452" x2="325" y2="452"/>
				<g>
					<polygon fill="#008000" points="339,452 319.102,460.131 323.823,452 319.102,443.871 					"/>
				</g>
			</g>
		</g>
	</g>
	<g>
		<g>
			<path fill="#FF0000" d="M501.247,199.167c0-0.145,0.072-0.432,0.216-1.008c0.36-1.513,0.36-1.513,2.232-1.513
				c1.656,0,3.528-0.144,4.321-0.216c0.72-0.144,1.08-0.36,1.368-0.864c0.216-0.504,10.153-39.963,10.153-40.396
				c0-0.288-0.072-0.504-0.288-0.504c-0.36-0.144-1.872-0.288-3.816-0.36H513.2c-0.504-0.504-0.648-0.504-0.288-1.8
				c0.288-1.296,0.36-1.296,0.72-1.512h38.812c0.144,0.071,0.504,0.288,0.504,0.792s-1.872,15.77-1.944,15.985
				c-0.144,0.432-0.432,0.504-1.44,0.504h-0.864c-0.432-0.288-0.504-0.504-0.504-0.937c0-0.792,0.432-2.088,0.432-5.544
				c0-7.272-3.744-7.489-13.393-7.489h-1.656c-5.833,0.072-6.409-0.144-6.769,0.792c-0.072,0.072-1.152,4.321-2.448,9.434
				l-2.304,9.288h3.96c2.88-0.071,6.336,0.217,8.208-1.655c2.16-1.944,2.592-6.121,2.88-6.409c0.144-0.288,0.432-0.36,1.368-0.36
				h0.864c0.216,0.145,0.504,0.433,0.504,0.721s-4.537,18.577-4.681,18.938c-0.144,0.432-0.432,0.504-1.44,0.504h-0.864
				c-0.36-0.288-0.504-0.504-0.504-0.864c0-0.792,0.72-2.016,0.72-4.464c0-2.881-1.656-3.097-7.849-3.097h-3.96l-2.304,9.145
				c-1.296,5.041-2.304,9.217-2.304,9.361c0,0.576,0.576,1.008,6.409,1.008h1.8c0.504,0.504,0.648,0.288,0.288,1.944
				c-0.36,1.152-0.216,0.864-0.72,1.368h-1.224c-2.953-0.144-6.985-0.144-10.873-0.144c-7.921,0-7.849,0.071-9.865,0.071
				C502.111,199.887,501.247,199.959,501.247,199.167z"/>
			<path fill="#FF0000" d="M564.08,178.116c0.288,0,0.576,0.048,0.816,0.048c0.96,0,4.369,0,7.729,3.265l0.624,0.576l1.44-1.873
				c0.768-1.056,1.44-1.92,1.488-1.968c0.096,0,0.24-0.048,0.48-0.048h0.192c0.144,0,0.192,0.048,0.432,0.288v13.441l-0.288,0.287
				h-1.632c-0.24-0.239-0.288-0.239-0.336-0.815c-0.576-5.232-3.264-9.409-6.864-10.609c-0.768-0.288-1.344-0.336-2.4-0.336
				c-3.312,0-10.897,1.488-11.953,11.857c-0.096,1.008-0.192,2.4-0.192,3.648c0,12.721,8.161,14.929,12.385,14.929
				c3.024,0,5.521-1.488,6.145-3.648c0.096-0.336,0.144-0.384,0.144-2.88v-2.496c-0.672-0.48-0.336-0.72-4.752-0.72h-1.248v-2.209
				h0.576c0.384,0.048,7.681,0.145,7.681,0.145c1.44,0,5.473-0.097,5.665-0.145h0.384v2.209h-0.672c-1.44,0-2.256,0-2.544,0.575
				c-0.096,0.192-0.096,0.433-0.096,5.137v4.896c-0.192,0.192-0.288,0.288-0.432,0.288s-0.384-0.144-0.864-0.48
				c-0.768-0.527-1.248-0.912-1.873-1.536l-0.624-0.575c-0.768,1.296-3.6,3.647-8.688,3.647c-8.401,0-16.802-6.912-16.802-17.473
				C547.998,183.877,557.791,178.116,564.08,178.116z"/>
			<path fill="#FF0000" d="M589.565,206.15c1.393,0,3.505,1.008,3.505,5.425c0,5.952-4.08,9.696-4.465,9.696
				c-0.288,0-1.056-0.864-1.056-1.056c0-0.672,3.36-2.544,3.744-8.113v-0.575c-0.048,0-0.576,0.432-1.584,0.432
				c-1.776,0-2.977-1.296-2.977-2.88C586.733,207.543,587.886,206.15,589.565,206.15z"/>
			<path fill="#FF0000" d="M603.678,175.956c0.336,0,0.624,0.191,0.816,0.528c0.096,0.191,0.096,0.672,0.096,23.474
				s0,23.282-0.096,23.474c-0.192,0.336-0.528,0.528-0.864,0.528c-0.24,0-0.48-0.096-0.672-0.288
				c-0.288-0.336-0.288,1.584-0.288-23.714c0-20.354,0-23.09,0.048-23.33C602.861,176.244,603.294,175.956,603.678,175.956z
				 M612.942,175.956c0.24,0,0.528,0.144,0.72,0.288c0.288,0.336,0.288-1.584,0.288,23.714s0,23.378-0.288,23.714
				c-0.191,0.192-0.432,0.288-0.672,0.288c-0.336,0-0.672-0.192-0.864-0.528c-0.096-0.191-0.096-0.672-0.096-23.474
				s0-23.282,0.096-23.474C612.271,176.196,612.606,175.956,612.942,175.956z"/>
		</g>
		<g>
			<g>
				<line fill="none" stroke="#FF0000" stroke-width="2" stroke-miterlimit="10" x1="520" y1="136" x2="541" y2="136"/>
				<g>
					<polygon fill="#FF0000" points="555,136 535.102,144.131 539.823,136 535.102,127.871 					"/>
				</g>
			</g>
		</g>
	</g>
	<g>
		<g>
			<path fill="#0000FF" d="M118.73,345.208c0-0.145,0.072-0.432,0.216-1.008c0.36-1.513,0.36-1.513,2.232-1.513
				c1.656,0,3.528-0.144,4.321-0.216c0.72-0.144,1.08-0.36,1.368-0.864c0.216-0.504,10.153-39.963,10.153-40.396
				c0-0.288-0.072-0.504-0.288-0.504c-0.36-0.144-1.872-0.288-3.816-0.36h-2.232c-0.504-0.504-0.648-0.504-0.288-1.8
				c0.288-1.296,0.36-1.296,0.72-1.512h38.812c0.144,0.071,0.504,0.288,0.504,0.792s-1.872,15.77-1.944,15.985
				c-0.144,0.432-0.432,0.504-1.44,0.504h-0.864c-0.432-0.288-0.504-0.504-0.504-0.937c0-0.792,0.432-2.088,0.432-5.544
				c0-7.272-3.744-7.489-13.393-7.489h-1.656c-5.833,0.072-6.409-0.144-6.769,0.792c-0.072,0.072-1.152,4.321-2.448,9.434
				l-2.304,9.288h3.96c2.88-0.071,6.336,0.217,8.208-1.655c2.16-1.944,2.592-6.121,2.88-6.409c0.144-0.288,0.432-0.36,1.368-0.36
				h0.864c0.216,0.145,0.504,0.433,0.504,0.721s-4.537,18.577-4.681,18.938c-0.144,0.432-0.432,0.504-1.44,0.504h-0.864
				c-0.36-0.288-0.504-0.504-0.504-0.864c0-0.792,0.72-2.016,0.72-4.464c0-2.881-1.656-3.097-7.849-3.097h-3.96l-2.304,9.145
				c-1.296,5.041-2.304,9.217-2.304,9.361c0,0.576,0.576,1.008,6.409,1.008h1.8c0.504,0.504,0.648,0.288,0.288,1.944
				c-0.36,1.152-0.216,0.864-0.72,1.368h-1.224c-2.953-0.144-6.985-0.144-10.873-0.144c-7.921,0-7.849,0.071-9.865,0.071
				C119.594,345.928,118.73,346,118.73,345.208z"/>
			<path fill="#0000FF" d="M181.563,324.157c0.288,0,0.576,0.048,0.816,0.048c0.96,0,4.369,0,7.729,3.265l0.624,0.576l1.44-1.873
				c0.768-1.056,1.44-1.92,1.488-1.968c0.096,0,0.24-0.048,0.48-0.048h0.192c0.144,0,0.192,0.048,0.432,0.288v13.441l-0.288,0.287
				h-1.632c-0.24-0.239-0.288-0.239-0.336-0.815c-0.576-5.232-3.264-9.409-6.864-10.609c-0.768-0.288-1.344-0.336-2.4-0.336
				c-3.312,0-10.897,1.488-11.953,11.857c-0.096,1.008-0.192,2.4-0.192,3.648c0,12.721,8.161,14.929,12.385,14.929
				c3.024,0,5.521-1.488,6.145-3.648c0.096-0.336,0.144-0.384,0.144-2.88v-2.496c-0.672-0.48-0.336-0.72-4.752-0.72h-1.248v-2.209
				h0.576c0.384,0.048,7.681,0.145,7.681,0.145c1.44,0,5.473-0.097,5.665-0.145h0.384v2.209h-0.672c-1.44,0-2.256,0-2.544,0.575
				c-0.096,0.192-0.096,0.433-0.096,5.137v4.896c-0.192,0.192-0.288,0.288-0.432,0.288s-0.384-0.144-0.864-0.48
				c-0.768-0.527-1.248-0.912-1.873-1.536l-0.624-0.575c-0.768,1.296-3.6,3.647-8.688,3.647c-8.401,0-16.802-6.912-16.802-17.473
				C165.481,329.918,175.274,324.157,181.563,324.157z"/>
			<path fill="#0000FF" d="M207.049,352.191c1.393,0,3.505,1.008,3.505,5.425c0,5.952-4.08,9.696-4.465,9.696
				c-0.288,0-1.056-0.864-1.056-1.056c0-0.672,3.36-2.544,3.744-8.113v-0.575c-0.048,0-0.576,0.432-1.584,0.432
				c-1.776,0-2.977-1.296-2.977-2.88C204.217,353.584,205.369,352.191,207.049,352.191z"/>
			<path fill="#0000FF" d="M232.586,325.934c0.336,0.048,0.624,0.288,0.864,0.72v29.427h14.354c0.72,0.384,0.72,0.768,0.72,0.96
				c0,0.384-0.145,0.672-0.72,0.96h-30.579c-0.048,0-0.768-0.288-0.768-0.96s0.72-0.96,0.768-0.96h14.306v-29.379
				C231.674,326.461,231.818,325.934,232.586,325.934z"/>
		</g>
		<g>
			<g>
				<line fill="none" stroke="#0000FF" stroke-width="2" stroke-miterlimit="10" x1="137" y1="284" x2="158" y2="284"/>
				<g>
					<polygon fill="#0000FF" points="172,284 152.102,292.131 156.823,284 152.102,275.871 					"/>
				</g>
			</g>
		</g>
	</g>
</g>
</svg>
